<?xml version="1.0" encoding="utf-8"?>
<!-- Generator: Adobe Illustrator 24.0.3, SVG Export Plug-In . SVG Version: 6.00 Build 0)  -->
<svg version="1.1" id="Layer_1" xmlns="http://www.w3.org/2000/svg" xmlns:xlink="http://www.w3.org/1999/xlink" x="0px" y="0px"
	 viewBox="0 0 716.4 283.5" style="enable-background:new 0 0 716.4 283.5;" xml:space="preserve">
<style type="text/css">
	.st0{fill:#E2DFC5;}
	.st1{fill:#2B1010;}
	.st2{fill:#CC2027;}
	.st3{fill:#43120E;}
	.st4{fill:#E9E8E8;}
	.st5{fill:#A1242E;}
	.st6{fill:#160E0F;}
	.st7{fill:#E2BC23;}
	.st8{fill:#E48948;}
	.st9{fill:#E7E3DF;}
	.st10{opacity:9.000000e-02;fill:url(#SVGID_1_);}
	.st11{fill:#1C0D0D;}
</style>
<path class="st0" d="M99,176.2c0-0.3,0-0.5,0.1-0.8C99.3,175.8,99.3,176,99,176.2z"/>
<g>
	<path class="st1" d="M152.3,241.4c-16.7,0-49.8,2.4-61-12.7c-11.6-15.6-28.1-28.1-37.1-46.1c-17.6-35.1-3.6-93.2,28.4-116.4
		c32-23.1,81.1-23.2,114.9-4c15,8.6,27,20.9,32.7,37.4c5.8,16.6,10.9,37.8,10,55.4c-1.2,22.4-12.2,42.8-29.1,57.7
		c-3.8,3.4-8,5.7-11.1,9.8c-2.5,3.3-3.6,7.3-6.8,10.2C183.3,241.5,164.5,241.4,152.3,241.4z"/>
</g>
<path class="st2" d="M235.3,146.1c-3.9-13.6-3.5-27-7.1-37.9c-2.4-7.3-3.2-12.5-7.2-19.3C191.1,38.3,85.5,37.9,63.5,96.4
	c-11.1,29.6-18.9,60.8-1.3,88c7,10.8,14.6,18.7,22.8,26.2c3.5,3.2,6,5,8.7,8.8c1.3,2,1.4,4.7,3.4,6.8c4.8,5,14,4.8,20.6,5.6
	c20.6,2.5,47.2,4.8,66.8-1.9c8.8-3,8.4-9.7,13.5-15.3c3.5-3.8,9.2-6.7,13-10.8c5-5.4,9.7-11.9,13.6-17.4
	C232.7,174.9,235.3,163.1,235.3,146.1z"/>
<path class="st3" d="M191.7,183.3c-16.5,5.4-33,4.9-50,5.4c-16.2,0.4-32.9-1-48.3-6.6c-8.8-3.2-17.4-7.9-23.8-15.1
	c-12.2-13.5-11-32.9-6.1-49.6c4.3-14.5,10.7-30.3,23.9-37.6c6.6-3.6,14.1-5.3,21.5-4.6c8,0.7,15.6,4.1,23.6,5.4
	c8,1.3,16.4,1.4,24.2-0.9c8.3-2.4,16.1-5.3,24.8-5.3c15.6-0.1,28.9,8.2,35.1,23.6c3.2,7.9,5.1,16.5,7,24.9c2.1,9.2,4.5,19.5,3.1,29
	C224.1,169.2,205.9,178.7,191.7,183.3z"/>
<path class="st4" d="M188.4,170.1c-15.4,4.5-30.9,4.1-46.7,4.5c-15.1,0.4-30.8-0.8-45.1-5.6c-8.3-2.7-16.2-6.7-22.3-12.7
	C63,144.9,64,128.5,68.6,114.4c4-12.2,10-25.6,22.4-31.8c6.2-3.1,13.1-4.5,20.1-3.9c7.5,0.6,14.6,3.4,22.1,4.5
	c7.5,1.1,15.3,1.2,22.6-0.7c7.7-2,15-4.5,23.2-4.5c14.6-0.1,27,6.9,32.8,19.9c3,6.7,4.8,14,6.6,21c2,7.8,4.2,16.5,2.9,24.5
	C218.7,158.2,201.7,166.2,188.4,170.1z"/>
<path class="st3" d="M145.2,220.5c-21.8,0-41.4-2.8-55-7.3c10.7,7.1,30.9,11.9,54.2,11.9c22.1,0,41.5-4.3,52.6-10.9
	C183.6,218.1,165.3,220.5,145.2,220.5z"/>
<g>
	<g>
		<g>
			<path class="st5" d="M149.4,140.2c0.1,0,0.2,0,0.3,0c3.5,0.1,6.5,1.1,7.4,2.1c0.2,0.2,0.1,0.5-0.2,0.7c-0.3,0.1-0.8,0.1-1-0.2
				c-0.6-0.7-3.2-1.6-6.2-1.6c-2,0-4.7,0.3-6.6,2.1c-0.2,0.2-0.7,0.3-1,0.1c-0.3-0.1-0.4-0.4-0.2-0.7
				C143.5,141.1,146.2,140.2,149.4,140.2z"/>
			<path class="st5" d="M142.5,144.4c-0.3,0-0.6-0.1-0.8-0.2c-0.5-0.2-0.8-0.6-0.9-1.1c-0.1-0.4,0.1-0.9,0.4-1.2
				c1.8-1.8,4.7-2.8,8.2-2.8l0.3,0c3.4,0.1,6.9,1.1,8.1,2.4c0.3,0.3,0.4,0.8,0.3,1.2c-0.1,0.5-0.4,0.8-0.9,1
				c-0.7,0.3-1.6,0.1-2.1-0.4c-0.4-0.4-2.7-1.3-5.5-1.3c-1.8,0-4.3,0.3-5.9,1.8C143.4,144.3,142.9,144.4,142.5,144.4z M156.6,142.1
				C156.6,142.1,156.6,142.1,156.6,142.1C156.6,142.1,156.6,142.1,156.6,142.1z"/>
		</g>
	</g>
	<g>
		<g>
			<path class="st5" d="M135.7,140.2c3.1,0,5.7,0.9,7.4,2.6c0.2,0.2,0.1,0.5-0.2,0.7c-0.3,0.1-0.8,0.1-1-0.1
				c-1.8-1.8-4.5-2.2-6.4-2.2c-3,0.1-5.5,1-6.1,1.7c-0.2,0.2-0.6,0.3-1,0.2c-0.3-0.1-0.4-0.4-0.2-0.7c0.9-1,3.9-2.1,7.2-2.1
				C135.5,140.2,135.6,140.2,135.7,140.2z"/>
			<path class="st5" d="M142.5,144.4c-0.5,0-1-0.2-1.3-0.5c-1.6-1.6-4-1.9-5.7-1.9c-2.9,0.1-5,1-5.4,1.3c-0.5,0.5-1.3,0.7-2.1,0.4
				c-0.5-0.2-0.8-0.6-0.9-1c-0.1-0.4,0-0.9,0.3-1.2c1.2-1.3,4.6-2.4,7.9-2.4l0.3,0c3.3,0,6.2,1,8.1,2.9c0.3,0.3,0.5,0.8,0.4,1.2
				c-0.1,0.5-0.4,0.8-0.9,1C143,144.4,142.7,144.4,142.5,144.4z M142.6,142.6C142.6,142.6,142.6,142.6,142.6,142.6
				C142.6,142.6,142.6,142.6,142.6,142.6z M128.7,142.1C128.7,142.1,128.7,142.1,128.7,142.1C128.7,142.1,128.7,142.1,128.7,142.1z"
				/>
		</g>
	</g>
</g>
<path class="st5" d="M96.1,155.5L96.1,155.5L96.1,155.5c-0.4-0.1-0.5,0.2-0.6,0.4c-2.8,1.3-5.7,2.3-8.9,2.3
	c-12.1-0.1-20.2-12.8-15.2-23.8c0.1-0.2,0.1-0.4,0.1-0.6c0-0.1,0.1-0.2,0.1-0.3c0.6-0.1,0.7-0.7,0.8-1.2c0.3-0.4,0.5-0.8,0.8-1.2
	c0.4-0.2,0.7-0.4,0.7-0.9c0.5-0.5,1-1.1,1.6-1.6c0.5,0,0.7-0.4,0.9-0.7c0.2-0.2,0.4-0.3,0.6-0.5c0.5,0,0.8-0.2,1-0.6
	c0.2-0.1,0.4-0.2,0.5-0.3c0.3-0.1,0.6-0.2,0.8-0.3c4.3-1.8,8.6-2.1,13-0.6c3.1,1,5.4,3.1,7.6,5.4c0,0.1,0,0.1,0.1,0.1
	c0,0.3,0.1,0.5,0.4,0.6c0.1,0.1,0.2,0.2,0.2,0.3c1.2,2.2,2,4.6,2.7,7.1c0,0.2,0,0.5,0.1,0.7c-0.2,1-0.2,1.9,0,2.9
	c0,0.2,0,0.5-0.1,0.7c-0.3,0.2-0.3,0.5-0.1,0.8c-0.6,2-1.1,3.9-2,5.7c-0.6,0.8-1.2,1.6-1.7,2.4c-0.7,0.5-1.4,1.1-1.9,1.8"/>
<path class="st6" d="M135.5,94.9c-3.9,8.2-11.7,2.2-16.3-2c-4.7-4.3-9.6-9.4-16.2-10.4c0,0,0.1,0,0.1,0c-4.7-0.3-9.7,1.4-13.6,3.8
	c-1.7,1-3.2,2.3-4.6,3.7c-0.8,0.8-2.5,3.4-3.5,3.7c-1,1-0.1-3.4-0.1-3.4c0.6-2.2,1.7-4.6,3.1-6.4c3.2-4.1,7.4-7,12.4-8.4
	c7.6-2,14.4,0.5,20.1,5.8c3.7,3.5,6.5,7.8,9.8,11.7c1.1,1.3,2.7,3.4,4.7,3.3c0.9-0.1,1.8-0.5,2.5-1.1
	C133.9,95.1,136.1,93.6,135.5,94.9z"/>
<path class="st6" d="M130.4,164c-0.5,1.5-1.8,2.8-2.9,4.1c-0.5,0.6-1,1.2-1.2,1.9c-0.1,0.1-0.6,1.7-1.1,1.3
	c-1.6-1.5-1.3-3.4-0.1-4.9c0.7-0.8,1.6-1.5,2.8-2C128.2,164.2,130.6,163.4,130.4,164z"/>
<path class="st6" d="M137.8,164.4c0,1.5-0.7,3-1.3,4.4c-0.2,0.6-0.5,1.3-0.5,2c0,0.1,0,1.7-0.6,1.4c-2.1-1.2-2.5-3.1-1.9-4.8
	c0.3-0.9,1-1.7,2-2.4C135.7,164.9,137.8,163.8,137.8,164.4z"/>
<path class="st5" d="M111.5,160.3c2-1.9,4.4-3.1,7.4-3.3c3.6-0.3,7.2,0.5,10.8,0.9c3.3,0.4,6.7,0.6,10.1,0.5c0.8,0,2.4-0.4,3,0.1
	c1.2,0.9-0.5,1.6-1.4,1.8c-3.3,0.7-6.6,1-9.9,1.1c-3.7,0.1-7.5-0.3-11.1,0.2c-1.3,0.2-2.4,0.5-3.4,1.4c-0.8,0.7-1.2,1.5-2.4,1.9
	c-2.8,0.8-5.1-2-3.4-4.2C111.2,160.5,111.3,160.4,111.5,160.3z"/>
<path class="st6" d="M129.1,101.4c2.8-0.7,5.3-0.4,6.7,2.6c0.8,1.7,0.9,3.9,0.3,5.6c-0.2,0.6-1,2.9-1.8,3.1c-0.9,0.9-1.8-5.4-1.9-6
	c-0.2-1.1-0.7-2.5-1.6-3.2C130.7,103.4,127.9,101.4,129.1,101.4C129.1,101.4,128.9,101.4,129.1,101.4z"/>
<g>
	<path class="st7" d="M86.9,187c-0.5,2.6-1.1,5.1-1.4,7.7c-0.1,1.5,0,3,0.1,4.4c0,0.3,0.2,1.1-0.1,1.4c-0.4,0.3-1.3-0.5-1.6-0.7
		c-3-1.9-4-5.2-3.1-8.1c0.4-1.4,1.5-2.7,2.8-3.7C83.9,187.8,86.7,186.2,86.9,187z"/>
	<path class="st7" d="M101.8,190.2c-0.3,3.4-0.9,6.7-0.9,10.1c0,1.9,0.1,4,0.5,5.9c0.1,0.3,0.5,1.6,0.2,1.9c0,0.7-1.6-0.4-1.7-0.5
		c-3.5-2.2-5-5.7-4.9-9.2c0.1-2.1,1-4,2.4-5.7C97.7,192.2,101.3,189.1,101.8,190.2z"/>
	<path class="st7" d="M117.6,192.5c-0.3,3.9-0.6,7.9-0.7,11.8c-0.2,2.2,0.4,4.5,0.7,6.6c0.1,0.4,0.5,1.5,0.1,1.9
		c-0.4,0.4-1.8-0.9-2.1-1.1c-3.6-2.7-5.2-7.1-4.6-11c0.3-2.1,1.2-4.2,2.7-5.9C114,194.5,117.3,191.5,117.6,192.5z"/>
	<path class="st7" d="M134.4,193.5c-1,4.3-2.1,8.6-2.3,12.9c-0.1,2.3,0,4.6,0.3,6.8c0.1,1.1,0.2,2.1,0.4,3.2
		c0.1,0.9-0.7,0.3-1.2-0.1c-4.2-3.2-5.8-8.4-5.1-12.9c0.4-2.4,1.4-4.8,3.1-6.8C129.8,196.3,134,192.3,134.4,193.5z"/>
</g>
<path class="st8" d="M102.7,148.9c-14.2,0-25.7-11.5-25.7-25.7c0-14.2,11.5-25.7,25.7-25.7s25.7,11.5,25.7,25.7
	C128.4,137.4,116.9,148.9,102.7,148.9z"/>
<path class="st9" d="M102.7,141.1c-9.9,0-17.9-8-17.9-17.9c0-9.9,8-17.9,17.9-17.9c9.9,0,17.9,8,17.9,17.9
	C120.6,133.1,112.6,141.1,102.7,141.1z"/>
<path class="st6" d="M113.4,123.2c0,5.9-4.8,10.7-10.7,10.7c-5.9,0-10.7-4.8-10.7-10.7c0-5.9,4.8-10.7,10.7-10.7
	C108.6,112.6,113.4,117.4,113.4,123.2z"/>
<path class="st5" d="M188.3,154.4c-0.5-0.7-1.1-1.3-1.9-1.8c-0.6-0.8-1.2-1.6-1.7-2.4c-0.9-1.8-1.5-3.8-2-5.7
	c0.2-0.3,0.2-0.6-0.1-0.8c0-0.2,0-0.5-0.1-0.7c0.2-1,0.2-1.9,0-2.9c0-0.2,0-0.5,0.1-0.7c0.6-2.4,1.5-4.8,2.7-7.1
	c0.1-0.1,0.2-0.2,0.2-0.3c0.3-0.1,0.4-0.3,0.4-0.6c0.1,0,0.1,0,0.1-0.1c2.2-2.3,4.5-4.3,7.6-5.4c4.4-1.5,8.8-1.2,13,0.6
	c0.3,0.1,0.6,0.2,0.8,0.3c0.2,0.1,0.4,0.2,0.5,0.3c0.2,0.4,0.5,0.7,1,0.6c0.2,0.2,0.4,0.3,0.6,0.5c0.2,0.4,0.4,0.7,0.9,0.7
	c0.5,0.5,1,1.1,1.6,1.6c0,0.5,0.3,0.7,0.7,0.9c0.3,0.4,0.5,0.8,0.8,1.2c0.1,0.5,0.2,1,0.8,1.2c0,0.1,0.1,0.2,0.1,0.3
	c0,0.2,0,0.4,0.1,0.6c5.1,11-3,23.7-15.2,23.8c-3.2,0-6.1-1-8.9-2.3c-0.2-0.2-0.3-0.5-0.6-0.5l-0.1,0.1l0.1-0.1"/>
<path class="st6" d="M150.4,94.9c3.9,8.2,11.7,2.2,16.3-2c4.7-4.3,9.6-9.4,16.2-10.4c0,0-0.1,0-0.1,0c4.7-0.3,9.7,1.4,13.6,3.8
	c1.7,1,3.2,2.3,4.6,3.7c0.8,0.8,2.5,3.4,3.5,3.7c1,1,0.1-3.4,0.1-3.4c-0.6-2.2-1.7-4.6-3.1-6.4c-3.2-4.1-7.4-7-12.4-8.4
	c-7.6-2-14.4,0.5-20.1,5.8c-3.7,3.5-6.5,7.8-9.8,11.7c-1.1,1.3-2.7,3.4-4.7,3.3c-0.9-0.1-1.8-0.5-2.5-1.1
	C151.9,95.1,149.8,93.6,150.4,94.9z"/>
<path class="st6" d="M155.4,164c0.5,1.5,1.8,2.8,2.9,4.1c0.5,0.6,1,1.2,1.2,1.9c0.1,0.1,0.6,1.7,1.1,1.3c1.6-1.5,1.3-3.4,0.1-4.9
	c-0.7-0.8-1.6-1.5-2.8-2C157.7,164.2,155.2,163.4,155.4,164z"/>
<path class="st6" d="M148,164.4c0,1.5,0.7,3,1.3,4.4c0.2,0.6,0.5,1.3,0.5,2c0,0.1,0,1.7,0.6,1.4c2.1-1.2,2.5-3.1,1.9-4.8
	c-0.3-0.9-1-1.7-2-2.4C150.1,164.9,148,163.8,148,164.4z"/>
<path class="st5" d="M174.4,160.3c-2-1.9-4.4-3.1-7.4-3.3c-3.6-0.3-7.2,0.5-10.8,0.9c-3.3,0.4-6.7,0.6-10.1,0.5
	c-0.8,0-2.4-0.4-3,0.1c-1.2,0.9,0.5,1.6,1.4,1.8c3.3,0.7,6.6,1,9.9,1.1c3.7,0.1,7.5-0.3,11.1,0.2c1.3,0.2,2.4,0.5,3.4,1.4
	c0.8,0.7,1.2,1.5,2.4,1.9c2.8,0.8,5.1-2,3.4-4.2C174.6,160.5,174.5,160.4,174.4,160.3z"/>
<path class="st6" d="M156.7,101.4c-2.8-0.7-5.3-0.4-6.7,2.6c-0.8,1.7-0.9,3.9-0.3,5.6c0.2,0.6,1,2.9,1.8,3.1c0.9,0.9,1.8-5.4,1.9-6
	c0.2-1.1,0.7-2.5,1.6-3.2C155.2,103.4,158,101.4,156.7,101.4C156.8,101.4,157,101.4,156.7,101.4z"/>
<g>
	<path class="st7" d="M199,187c0.5,2.6,1.1,5.1,1.4,7.7c0.1,1.5,0,3-0.1,4.4c0,0.3-0.2,1.1,0.1,1.4c0.4,0.3,1.3-0.5,1.6-0.7
		c3-1.9,4-5.2,3.1-8.1c-0.4-1.4-1.5-2.7-2.8-3.7C201.9,187.8,199.2,186.2,199,187z"/>
	<path class="st7" d="M184.1,190.2c0.3,3.4,0.9,6.7,0.9,10.1c0,1.9-0.1,4-0.5,5.9c-0.1,0.3-0.5,1.6-0.2,1.9c0,0.7,1.6-0.4,1.7-0.5
		c3.5-2.2,5-5.7,4.9-9.2c-0.1-2.1-1-4-2.4-5.7C188.1,192.2,184.5,189.1,184.1,190.2z"/>
	<path class="st7" d="M168.3,192.5c0.3,3.9,0.6,7.9,0.7,11.8c0.2,2.2-0.4,4.5-0.7,6.6c-0.1,0.4-0.5,1.5-0.1,1.9
		c0.4,0.4,1.8-0.9,2.1-1.1c3.6-2.7,5.2-7.1,4.6-11c-0.3-2.1-1.2-4.2-2.7-5.9C171.8,194.5,168.5,191.5,168.3,192.5z"/>
	<path class="st7" d="M151.5,193.5c1,4.3,2.1,8.6,2.3,12.9c0.1,2.3,0,4.6-0.3,6.8c-0.1,1.1-0.2,2.1-0.4,3.2
		c-0.1,0.9,0.7,0.3,1.2-0.1c4.2-3.2,5.8-8.4,5.1-12.9c-0.4-2.4-1.4-4.8-3.1-6.8C156,196.3,151.8,192.3,151.5,193.5z"/>
</g>
<path class="st8" d="M182.3,148.9c-14.2,0-25.7-11.5-25.7-25.7c0-14.2,11.5-25.7,25.7-25.7c14.2,0,25.7,11.5,25.7,25.7
	C208,137.4,196.4,148.9,182.3,148.9z"/>
<path class="st9" d="M182.3,141.1c-9.9,0-17.9-8-17.9-17.9c0-9.9,8-17.9,17.9-17.9c9.9,0,17.9,8,17.9,17.9
	C200.2,133.1,192.1,141.1,182.3,141.1z"/>
<path class="st6" d="M105.9,89.7c-0.2,0-0.4,0-0.6-0.1c-0.6,0.2-1.2,0.1-1.8,0c-9-0.6-15,4.1-19.3,11.4c-0.4,0.6-0.3,0.7-0.3,1.5
	c5.8-5,12.4-7.3,20.1-6.3c3.4,0.5,6.3,2.5,9.1,4.3c1.1,0.7,2.1,1.4,3.4,1.3c1.5-0.1,2.7-0.9,3.2-2.4c0.5-1.5,0-3.2-1.3-4.1
	c-2.6-1.9-5.4-3.4-8.4-4.5C108.6,90.5,107.1,90.4,105.9,89.7z"/>
<path class="st6" d="M143,148.3c-1.1,4.8-6.6,5.9-11,5.7c-5.8-0.3-11.5-1.7-17.3-2.2c-4.8-0.3-11.9-0.4-15.7,3.2
	c-3.6,3.4-2.3,9-1.4,13.1c0.3,1.7-1.7-0.7-2-1c-1.5-1.9-2.6-4-3.2-6.3c-1.1-4.7,0.8-9.5,5.2-12.4c9.1-6.1,21.4-3.8,30.8-0.6
	c2.8,0.9,5.7,2.2,8.7,2.5c1.3,0.1,2.5-0.1,3.6-0.8C141,149.3,143.3,147.3,143,148.3z"/>
<path class="st6" d="M179.9,89.7c0.2,0,0.4,0,0.6-0.1c0.6,0.2,1.2,0.1,1.8,0c9-0.6,15,4.1,19.3,11.4c0.4,0.6,0.3,0.7,0.3,1.5
	c-5.8-5-12.4-7.3-20.1-6.3c-3.4,0.5-6.3,2.5-9.1,4.3c-1.1,0.7-2.1,1.4-3.4,1.3c-1.5-0.1-2.7-0.9-3.2-2.4c-0.5-1.5,0-3.2,1.3-4.1
	c2.6-1.9,5.4-3.4,8.4-4.5C177.3,90.5,178.7,90.4,179.9,89.7z"/>
<path class="st6" d="M142.8,148.3c1.1,4.8,6.6,5.9,11,5.7c5.8-0.3,11.5-1.7,17.3-2.2c4.8-0.3,11.9-0.4,15.7,3.2
	c3.6,3.4,2.3,9,1.4,13.1c-0.3,1.7,1.7-0.7,2-1c1.5-1.9,2.6-4,3.2-6.3c1.1-4.7-0.8-9.5-5.2-12.4c-9.1-6.1-21.4-3.8-30.8-0.6
	c-2.8,0.9-5.7,2.2-8.7,2.5c-1.3,0.1-2.5-0.1-3.6-0.8C144.9,149.3,142.5,147.3,142.8,148.3z"/>
<linearGradient id="SVGID_1_" gradientUnits="userSpaceOnUse" x1="123.3062" y1="141.2367" x2="36.5542" y2="107.092">
	<stop  offset="0" style="stop-color:#FFFFFF"/>
	<stop  offset="1" style="stop-color:#000000"/>
</linearGradient>
<path class="st10" d="M110.4,225c-8.1-6-20.1-12.1-26.2-22.2s0-26.2,0-26.2l6-8.1c0,0,0,0,0-12.1c0-12.1,16.1-52.4,24.2-62.4
	S136.5,82,136.5,82s4,0,8.1,0s4,2,8.1-12.1c1.9-6.6,0.7-14.5-1.4-21.3c-24.4-1.8-49.6,3.8-68.7,17.6c-32,23.1-46,81.3-28.4,116.4
	c9,18,25.5,30.5,37.1,46.1c5.2,7.1,15.3,10.3,26.3,11.7C117.5,237.6,116.8,229.9,110.4,225z"/>
<path class="st11" d="M342,128.9h-0.3l-10.3,29.6h-6.8l-10.3-29.6h-0.3l-2.4,29.9H300l4.5-50.4h12.2l11.2,29.1l11.2-29.1h12.2
	l4.5,50.4h-11.5L342,128.9z"/>
<path class="st11" d="M414.2,158.8h-12.3l-3.7-10.1h-19.2l-3.7,10.1h-12.4l20.4-50.4h10.6L414.2,158.8z M388.6,123.9h-0.1l-5.6,14.7
	h11.4L388.6,123.9z"/>
<path class="st11" d="M453.9,158.8l-18.6-21.4v21.4h-11.5v-50.4h11.5v20.6l17.3-20.6h13.9l-20.3,23.9l23.5,26.5H453.9z"/>
<path class="st11" d="M559.5,109c13.8,0,25.4,10.5,25.4,25.2c0,14.7-11.6,25.3-25.4,25.3h-14.6V109H559.5z M558.1,149.1
	c8.5,0,14.3-6.5,14.4-14.9c0-8.4-5.8-15-14.4-15h-1.8v29.9H558.1z"/>
<g>
	<path class="st11" d="M539.6,167.2c0,5.8-1.8,11-5.5,15.6c-8.5,10.7-20.1,16-34.9,16c-6.6,0-12.6-0.7-18.1-2.1
		c-3.5-0.9-7-2.7-10.6-5.5c-4.1-3.3-6.2-6.5-6.2-9.6c0-1.5,0.7-2.8,2-4c1.4-1.2,2.8-1.8,4.3-1.8c2.6,0,4.4,1.2,5.7,3.6
		c1.7,3.5,3.1,5.8,4.2,6.7c2.9,2.4,7.7,3.6,14.5,3.6c5.8,0,11.2-1.1,16.1-3.2c5.5-2.5,9.6-5.9,12.3-10.4c1.9-3.3,2.9-5.9,2.9-7.9
		c0-4.2-2.6-7.8-7.7-10.7c-4.3-2.6-8.7-3.8-13.2-3.8c-1.2,0-4.5,1-9.8,3c-5.3,2-9.5,3-12.5,3c-1.7,0-3.2-0.3-4.6-1.1
		c-1.8-0.8-2.6-1.9-2.6-3.4c0-1.8,1-3.8,2.9-5.8c1.9-2,5.4-3.2,10.4-3.4c6.2-0.4,9.9-0.8,11.4-1.5c2.6-1.1,5.9-3.8,9.9-8.2
		c3.6-4.1,5.4-8.1,5.4-11.9c0-4.8-2.5-7.3-7.5-7.3c-2.8,0-6.8,1.1-12,3.3c-5.2,2.2-8.5,4.3-9.9,6.3v0.4c0,0.1,0.2,0.7,0.7,1.8
		c-1,2-2.8,4.1-5.5,6.3c-3,2.3-5.5,3.4-7.5,3.4c-1.5,0-3-0.5-4.6-1.7c-1.5-1.1-2.3-2.4-2.3-3.8c0-1.9,1.2-4.4,3.6-7.5
		c3.9-5,9.6-9.5,17.1-13.4c7.5-3.9,14.4-5.9,20.5-5.9c5.5,0,10.2,1.5,13.9,4.4c4,3.1,6.1,7.4,6.1,12.8c0,3.7-1.2,7.7-3.6,12
		c-2.2,3.9-4.9,7.1-8.1,9.8C532,148.7,539.6,156,539.6,167.2z"/>
</g>
<path class="st11" d="M619.2,107.6c13.9,0,25.2,11.3,25.2,25.9c0,14.6-10.8,25.9-25.2,25.9c-14.8,0-25.2-11.3-25.2-25.9
	C594,118.8,605.5,107.6,619.2,107.6z M619.2,148.4c9.1,0,12.8-7.5,12.8-14.9c0-7.5-4-14.9-12.8-14.9c-8.8,0-12.9,7.5-12.9,14.9
	C606.3,140.9,609.9,148.4,619.2,148.4z"/>
</svg>
